<svg xmlns="http://www.w3.org/2000/svg" viewBox="0 0 48 48">
  <path fill="#455A64" d="m44 21.78-8.82-2.41 4.53-7.94-3.14-3.14-7.6 4.33L26.23 4h-4.44l-2.64 8.26-7.71-3.97-3.14 3.14 3.97 7.7L4 21.79v4.44l8.26 2.64-3.97 7.7 3.14 3.15 7.7-3.97L21.79 44h4.44l2.64-8.26 7.71 3.97 3.14-3.14-4.15-8.04 8.44-2.3v-4.45zm-20 11.1a8.89 8.89 0 1 1 0-17.77 8.89 8.89 0 0 1 0 17.78z"/>
  <path fill="#78909C" d="M24 9a15 15 0 1 0 0 30 15 15 0 0 0 0-30z"/>
  <path fill="#FFF" d="M19.32 26.95h-2.74L16.05 29h-2.13l3.11-10h1.84L22 29h-2.15l-.53-2.05zm-2.3-1.68h1.86l-.93-3.56-.93 3.56zM33 29h-2V19h2v10zm-7.99-3.52V29H23V19h3.4c.97 0 1.76.3 2.34.92.6.61.88 1.41.88 2.39a3.1 3.1 0 0 1-.86 2.32c-.58.57-1.39.85-2.41.85h-1.34zm0-1.68h1.38c.38 0 .68-.13.89-.38.2-.25.31-.61.31-1.1 0-.5-.1-.9-.32-1.19-.21-.3-.5-.44-.86-.45h-1.4v3.12z"/>
</svg>
